# xmcd CD database file
#
# Track frame offsets:
#	150
#	13170
#	31992
#	41977
#	49792
#	68235
#	78417
#	90500
#	101080
#	115870
#	130645
#	147432
#
# Disc length: 2794 seconds
#
# Revision: 1
# Processed by: cddbd v1.5.1PL0 Copyright (c) Steve Scherf et al.
# Submitted via: CDex 1.51
#
DISCID=a10ae80c
DTITLE=Asylum - Farewell (To Lovely...)
DYEAR=1900
DGENRE=Rock
TTITLE0=Nothin' To Be A Friend
TTITLE1=White Dreamer
TTITLE2=Farewell
TTITLE3=幸福の終りに
TTITLE4=Out In The Street
TTITLE5=哀願
TTITLE6=エサ
TTITLE7=Incest
TTITLE8=夢宴
TTITLE9=Finale
TTITLE10=Christmas N.G
TTITLE11=Tybe Vatamia Platami
EXTD=
EXTT0=
EXTT1=
EXTT2=
EXTT3=
EXTT4=
EXTT5=
EXTT6=
EXTT7=
EXTT8=
EXTT9=
EXTT10=
EXTT11=
PLAYORDER=
